<svg xmlns="http://www.w3.org/2000/svg" width="1200" height="760"><rect width="1200" height="760" fill="#080808"/><path d="M0 650L1200 300V760H0Z" fill="#160b06"/><circle cx="940" cy="170" r="260" fill="#ff6a18" opacity=".12"/><rect x="100" y="95" width="1000" height="570" rx="28" fill="#111" stroke="#6b2d12" stroke-width="3"/><rect x="145" y="135" width="910" height="60" rx="14" fill="#17110e"/><circle cx="190" cy="165" r="18" fill="#ff6a18"/><g fill="#4a352b"><rect x="700" y="155" width="70" height="12" rx="6"/><rect x="795" y="155" width="70" height="12" rx="6"/><rect x="890" y="155" width="70" height="12" rx="6"/></g><rect x="145" y="225" width="910" height="230" rx="18" fill="#1c100a"/><text x="195" y="320" fill="#f4eee9" font-family="sans-serif" font-weight="700" font-size="54">COLLEGE PORTAL</text><text x="198" y="370" fill="#b58d79" font-family="monospace" font-size="20">ACADEMICS · ADMINISTRATION · STUDENTS</text><rect x="145" y="485" width="280" height="130" rx="16" fill="#17110e"/><rect x="460" y="485" width="280" height="130" rx="16" fill="#17110e"/><rect x="775" y="485" width="280" height="130" rx="16" fill="#17110e"/></svg>