<svg xmlns="http://www.w3.org/2000/svg" width="1200" height="760" viewBox="0 0 1200 760"><rect width="1200" height="760" fill="#090909"/><defs><radialGradient id="g"><stop stop-color="#ff6a18" stop-opacity=".65"/><stop offset="1" stop-color="#ff6a18" stop-opacity="0"/></radialGradient></defs><circle cx="880" cy="390" r="330" fill="url(#g)"/><rect x="120" y="85" width="960" height="590" rx="34" fill="#111" stroke="#6b2d12" stroke-width="3"/><rect x="165" y="135" width="180" height="490" rx="22" fill="#17110e"/><circle cx="215" cy="195" r="25" fill="#ff6a18"/><rect x="260" y="178" width="58" height="12" rx="6" fill="#594238"/><g fill="#2a201b"><rect x="185" y="270" width="130" height="18" rx="9"/><rect x="185" y="325" width="105" height="18" rx="9"/><rect x="185" y="380" width="125" height="18" rx="9"/></g><rect x="390" y="135" width="450" height="490" rx="22" fill="#14100e"/><g fill="none" stroke="#ff6a18" stroke-width="4"><circle cx="450" cy="200" r="34"/><circle cx="540" cy="200" r="34"/><circle cx="630" cy="200" r="34"/></g><rect x="430" y="270" width="370" height="230" rx="18" fill="#24130c"/><circle cx="615" cy="385" r="75" fill="#ff6a18" opacity=".22"/><rect x="430" y="530" width="260" height="15" rx="7" fill="#3b2a22"/><rect x="430" y="565" width="190" height="12" rx="6" fill="#2b211c"/><text x="905" y="590" fill="#ff7a2b" font-family="monospace" font-size="24">SOCIAL UI</text></svg>