<svg xmlns="http://www.w3.org/2000/svg" width="1200" height="760"><rect width="1200" height="760" fill="#080808"/><defs><radialGradient id="e"><stop stop-color="#ff6a18" stop-opacity=".55"/><stop offset="1" stop-color="#ff6a18" stop-opacity="0"/></radialGradient></defs><circle cx="600" cy="390" r="360" fill="url(#e)"/><path d="M350 500h500l-55-165H430z" fill="#14100e" stroke="#ff6a18" stroke-width="4"/><circle cx="440" cy="520" r="72" fill="#0b0b0b" stroke="#ff6a18" stroke-width="8"/><circle cx="760" cy="520" r="72" fill="#0b0b0b" stroke="#ff6a18" stroke-width="8"/><path d="M485 330h230l70 110H415z" fill="#1b120e"/><path d="M600 165c70 95 105 150 105 205a105 105 0 1 1-210 0c0-55 35-110 105-205z" fill="#ff6a18" opacity=".75"/><path d="M600 220c35 55 55 92 55 125a55 55 0 1 1-110 0c0-33 20-70 55-125z" fill="#090909"/><text x="420" y="680" fill="#f4eee9" font-family="monospace" font-size="25">WASTEWATER → ENERGY → MOTION</text></svg>